<?xml version="1.0" encoding="UTF-8"?>
<svg xmlns="http://www.w3.org/2000/svg" xmlns:xlink="http://www.w3.org/1999/xlink" viewBox="0 0 128 128" width="128px" height="128px">
<g id="surface2467131">
<path style=" stroke:none;fill-rule:nonzero;fill:rgb(95.686275%,24.705882%,36.862746%);fill-opacity:1;" d="M 86.199219 104 L 41.800781 104 C 32 104 24 96 24 86.199219 L 24 41.800781 C 24 32 32 24 41.800781 24 L 86.199219 24 C 96 24 104 32 104 41.800781 L 104 86.199219 C 104 96 96 104 86.199219 104 Z M 86.199219 104 "/>
<path style=" stroke:none;fill-rule:nonzero;fill:rgb(95.686275%,24.705882%,36.862746%);fill-opacity:1;" d="M 86.199219 104 L 41.800781 104 C 32 104 24 96 24 86.199219 L 24 41.800781 C 24 32 32 24 41.800781 24 L 86.199219 24 C 96 24 104 32 104 41.800781 L 104 86.199219 C 104 96 96 104 86.199219 104 Z M 86.199219 104 "/>
<path style=" stroke:none;fill-rule:nonzero;fill:rgb(100%,100%,100%);fill-opacity:1;" d="M 24 41.800781 L 24 56.5 C 38.5 45.398438 65.199219 31.601562 103.5 37.5 C 101.5 29.699219 94.601562 24 86.199219 24 L 41.800781 24 C 32 24 24 32 24 41.800781 Z M 24 41.800781 "/>
<path style=" stroke:none;fill-rule:nonzero;fill:rgb(100%,100%,100%);fill-opacity:1;" d="M 53.5 49 L 53.5 79 L 79.5 64 Z M 53.5 49 "/>
<path style="fill:none;stroke-width:8.0625;stroke-linecap:round;stroke-linejoin:round;stroke:rgb(26.666668%,29.411766%,32.941177%);stroke-opacity:1;stroke-miterlimit:10;" d="M 115.8302 139.75 L 56.1698 139.75 C 43 139.75 32.25 129 32.25 115.8302 L 32.25 56.1698 C 32.25 43 43 32.25 56.1698 32.25 L 115.8302 32.25 C 129 32.25 139.75 43 139.75 56.1698 L 139.75 115.8302 C 139.75 129 129 139.75 115.8302 139.75 Z M 115.8302 139.75 " transform="matrix(0.744186,0,0,0.744186,0,0)"/>
</g>
</svg>
